<?xml version="1.0" standalone="no"?>
<!DOCTYPE svg PUBLIC "-//W3C//DTD SVG 20010904//EN"
 "http://www.w3.org/TR/2001/REC-SVG-20010904/DTD/svg10.dtd">
<svg version="1.0" xmlns="http://www.w3.org/2000/svg"
 width="180.000000pt" height="180.000000pt" viewBox="0 0 180.000000 180.000000"
 preserveAspectRatio="xMidYMid meet">
<metadata>
Created by potrace 1.11, written by Peter Selinger 2001-2013
</metadata>
<g transform="translate(0.000000,180.000000) scale(0.100000,-0.100000)"
fill="#000000" stroke="none">
<path d="M0 900 l0 -900 900 0 900 0 0 900 0 900 -900 0 -900 0 0 -900z m264
394 c25 -10 21 -70 -6 -88 -12 -9 -30 -16 -40 -16 -14 0 -18 -8 -18 -40 0 -36
-2 -40 -26 -40 -19 0 -24 4 -20 18 2 9 7 52 11 95 l7 77 38 0 c21 0 45 -3 54
-6z m284 -6 c-7 -19 -38 -22 -38 -4 0 10 9 16 21 16 12 0 19 -5 17 -12z m174
-35 c-4 -47 -3 -47 13 -25 10 14 27 22 46 22 22 0 29 5 29 20 0 13 7 20 20 20
13 0 20 -7 20 -19 0 -11 5 -21 12 -23 8 -3 7 -11 -5 -28 -18 -27 -23 -80 -7
-80 6 0 10 -7 10 -16 0 -11 -8 -14 -27 -12 -26 3 -28 6 -29 56 -1 60 -7 70
-30 51 -16 -13 -15 -50 2 -92 6 -16 3 -18 -17 -15 -14 2 -25 11 -27 23 -7 36
-22 41 -22 7 0 -26 -4 -32 -21 -32 -21 0 -21 3 -14 88 8 98 9 102 33 102 14 0
17 -8 14 -47z m-352 -17 c0 -6 -9 -17 -20 -24 -15 -9 -20 -23 -20 -57 0 -38
-3 -45 -20 -45 -22 0 -26 29 -14 102 6 35 9 37 40 36 19 -1 34 -6 34 -12z m99
-4 c12 -22 -2 -102 -20 -113 -21 -13 -55 -11 -69 6 -13 16 -5 91 12 113 16 18
66 15 77 -6z m66 -59 c-4 -43 -12 -84 -17 -90 -14 -18 -48 -16 -48 2 0 8 4 15
9 15 5 0 12 34 16 75 7 66 10 75 27 75 19 0 20 -4 13 -77z m113 40 c3 -31 1
-33 -27 -33 -24 0 -31 -4 -31 -20 0 -11 5 -20 10 -20 6 0 10 5 10 10 0 6 9 10
20 10 24 0 26 -13 4 -34 -19 -20 -58 -21 -74 -1 -13 16 -5 91 13 113 6 7 24
12 41 10 27 -3 31 -7 34 -35z m282 17 c0 -13 -7 -20 -20 -20 -13 0 -20 7 -20
20 0 13 7 20 20 20 13 0 20 -7 20 -20z m-10 -90 c0 -13 -7 -20 -20 -20 -13 0
-20 7 -20 20 0 13 7 20 20 20 13 0 20 -7 20 -20z m-557 -77 c-40 -2 -107 -2
-150 0 -43 1 -10 3 72 3 83 0 118 -2 78 -3z m470 0 c-51 -2 -136 -2 -190 0
-54 1 -12 3 92 3 105 0 149 -2 98 -3z m735 -56 c16 -16 26 -40 29 -69 5 -44 5
-45 -27 -52 -53 -10 -70 -8 -68 12 3 38 -3 52 -22 52 -24 0 -43 -34 -34 -63 4
-12 30 -46 59 -77 67 -70 75 -87 75 -151 0 -46 -4 -55 -38 -89 -87 -87 -213
-49 -229 68 -6 44 -7 43 69 55 25 4 27 1 30 -37 3 -36 6 -41 29 -44 21 -2 28
2 33 22 9 36 -6 65 -59 116 -58 56 -75 88 -75 140 0 45 17 85 48 113 47 43
139 45 180 4z m-1308 9 c0 -59 -44 -406 -55 -432 -17 -40 -42 -54 -111 -61
-59 -6 -60 -5 -48 56 5 24 12 31 30 31 12 0 26 4 29 10 3 5 15 99 27 210 l22
200 53 0 c39 0 53 -4 53 -14z m284 -218 c10 -128 20 -241 22 -250 5 -15 -2
-18 -44 -18 -55 0 -62 7 -62 66 0 34 -1 35 -37 32 -34 -3 -37 -6 -50 -50 l-14
-48 -49 0 c-28 0 -50 3 -50 6 0 4 32 116 72 250 l71 244 62 0 61 0 18 -232z
m233 115 l38 -118 6 50 c4 28 10 80 14 118 l7 67 44 0 c29 0 44 -4 44 -12 0
-7 -11 -119 -25 -248 -14 -129 -25 -236 -25 -237 0 -2 -17 -3 -37 -3 l-38 0
-34 120 c-19 66 -36 118 -38 116 -3 -2 -10 -55 -16 -117 l-12 -114 -48 -3 -48
-3 5 43 c8 59 46 427 46 444 0 10 12 14 40 14 l39 0 38 -117z m329 100 c-10
-38 -39 -371 -33 -387 4 -9 17 -16 31 -16 34 0 41 28 62 243 l17 177 53 0 c30
0 54 -4 54 -9 0 -56 -43 -389 -54 -414 -29 -70 -114 -102 -198 -76 -34 11 -47
22 -62 53 -18 37 -18 43 -2 210 26 258 18 236 83 236 47 0 54 -2 49 -17z m654
4 c0 -12 -52 -278 -65 -334 -3 -13 -12 -23 -20 -23 -13 0 -15 26 -15 163 0
207 0 207 56 207 30 0 44 -4 44 -13z m-48 -442 l-4 -45 -50 0 c-47 0 -50 1
-44 23 3 12 6 32 6 45 0 20 5 22 48 22 l47 0 -3 -45z"/>
<path d="M210 1245 c0 -16 6 -25 15 -25 9 0 15 9 15 25 0 16 -6 25 -15 25 -9
0 -15 -9 -15 -25z"/>
<path d="M415 1184 c-3 -20 -4 -39 -1 -42 9 -8 13 0 19 41 7 48 -9 49 -18 1z"/>
<path d="M600 1210 c0 -5 5 -10 10 -10 6 0 10 5 10 10 0 6 -4 10 -10 10 -5 0
-10 -4 -10 -10z"/>
<path d="M427 792 c-21 -97 -22 -92 8 -92 l25 0 -6 83 c-4 45 -8 83 -9 84 -1
2 -9 -32 -18 -75z"/>
</g>
</svg>
